<?xml version="1.0" standalone="no"?>
<!DOCTYPE svg PUBLIC "-//W3C//DTD SVG 20010904//EN"
 "http://www.w3.org/TR/2001/REC-SVG-20010904/DTD/svg10.dtd">
<svg version="1.0" xmlns="http://www.w3.org/2000/svg"
 width="512.000000pt" height="512.000000pt" viewBox="0 0 512.000000 512.000000"
 preserveAspectRatio="xMidYMid meet">

<g transform="translate(0.000000,512.000000) scale(0.100000,-0.100000)"
fill="#000000" stroke="none">
<path d="M142 4850 c-46 -19 -92 -63 -117 -113 l-25 -51 0 -1326 0 -1326 26
-53 c28 -56 91 -106 147 -118 l27 -6 -2 -281 -3 -281 -47 -7 c-97 -13 -155
-93 -145 -196 12 -129 85 -241 195 -300 76 -41 177 -55 353 -51 123 4 132 5
150 28 22 28 25 69 5 97 -13 17 -31 19 -199 24 -171 5 -188 8 -233 31 -55 28
-109 98 -120 155 -13 70 -133 64 1311 64 l1306 0 -3 -123 -3 -122 -902 -3
-902 -2 -20 -26 c-27 -35 -26 -57 3 -91 l24 -28 900 -3 900 -2 4 -143 c3 -122
6 -148 25 -183 34 -65 69 -100 125 -128 l52 -26 695 0 c652 0 699 2 736 19 56
25 101 66 133 120 26 43 27 54 30 193 l4 148 76 0 c211 1 331 52 410 178 61
96 77 205 41 279 -27 55 -69 85 -130 91 l-49 5 0 1359 c0 1197 -2 1363 -15
1395 -25 59 -61 99 -109 122 -42 19 -62 21 -254 21 -197 0 -210 -1 -227 -20
-25 -28 -23 -76 4 -103 20 -21 31 -22 215 -25 186 -3 194 -4 215 -26 l21 -22
-2 -1350 -3 -1349 -95 0 -95 0 -5 795 -5 795 -27 46 c-32 54 -77 95 -133 120
-36 17 -72 19 -347 19 l-308 0 0 484 0 485 149 3 c130 3 152 5 170 22 27 25
28 79 1 106 -18 18 -33 20 -169 20 l-149 0 -4 253 c-3 223 -5 256 -22 287 -26
49 -64 88 -108 111 -36 18 -83 19 -1745 18 -1017 0 -1717 -4 -1731 -9z m3434
-161 c18 -20 19 -48 19 -818 l0 -796 -67 -3 -68 -3 -2 730 c-3 701 -4 730 -22
750 l-19 21 -1167 0 c-1157 0 -1167 0 -1185 -20 -25 -28 -23 -76 4 -103 l22
-22 1109 -3 1110 -2 -2 -673 -3 -672 -170 -5 c-101 -4 -182 -11 -199 -18 -51
-22 -101 -69 -132 -124 l-29 -53 -3 -287 -3 -288 -1165 0 -1164 0 0 1059 0
1059 181 4 c176 3 181 4 200 27 25 30 24 76 -1 101 -19 19 -33 20 -255 20
-228 0 -235 -1 -255 -22 -20 -22 -20 -28 -20 -1188 l0 -1167 23 -21 23 -22
1215 -2 1214 -3 3 -67 3 -68 -1290 0 -1290 0 -20 26 -21 27 0 1297 0 1297 21
27 20 26 1683 0 1683 0 19 -21z m784 -1784 c64 -33 60 41 60 -1240 0 -1281 4
-1207 -60 -1240 -25 -13 -119 -15 -690 -15 -606 0 -664 1 -691 17 -59 35 -59
39 -59 521 0 488 2 475 -65 488 -49 9 -78 -21 -85 -87 l-5 -54 -1207 -3 -1208
-2 0 285 0 285 1208 -2 1207 -3 3 -85 c2 -70 7 -89 24 -107 30 -33 80 -31 107
3 21 26 21 35 21 591 0 617 -1 609 58 645 25 16 83 17 690 18 573 0 667 -2
692 -15z m606 -1780 c21 -53 -46 -166 -119 -204 -42 -21 -62 -24 -160 -25
l-112 -1 -3 123 -3 122 196 0 c165 0 197 -2 201 -15z"/>
<path d="M1788 4119 c-292 -32 -540 -241 -630 -529 -20 -64 -23 -95 -22 -215
0 -124 3 -149 27 -220 46 -138 122 -249 236 -348 69 -59 213 -131 306 -152 93
-22 253 -22 341 0 349 87 593 414 570 765 -8 114 -27 187 -80 295 -135 275
-438 439 -748 404z m236 -165 c137 -33 295 -152 363 -274 58 -102 78 -182 77
-305 -1 -91 -5 -122 -27 -183 -87 -248 -307 -403 -569 -403 -161 0 -290 54
-409 171 -121 120 -179 256 -179 420 0 149 55 291 155 398 156 168 364 230
589 176z"/>
<path d="M2128 3648 c-9 -7 -79 -95 -157 -195 -78 -101 -145 -183 -150 -183
-4 0 -38 36 -77 81 -82 95 -114 116 -154 99 -34 -14 -55 -51 -47 -83 9 -34
235 -286 264 -293 14 -4 35 -2 48 4 24 11 370 448 385 486 10 27 -11 80 -35
90 -26 10 -60 7 -77 -6z"/>
<path d="M3481 2784 c-24 -30 -26 -43 -10 -78 19 -41 53 -48 219 -44 146 3
153 4 171 27 26 32 24 73 -4 99 -22 21 -33 22 -189 22 l-167 0 -20 -26z"/>
<path d="M3532 2246 c-197 -50 -366 -207 -428 -401 -54 -164 -28 -359 66 -502
227 -345 710 -368 969 -45 188 234 167 570 -49 787 -114 116 -232 166 -400
171 -65 2 -125 -2 -158 -10z m267 -155 c85 -26 140 -61 199 -126 160 -175 160
-425 0 -600 -252 -276 -709 -136 -767 235 -50 318 261 587 568 491z"/>
<path d="M3855 1879 c-11 -6 -65 -68 -119 -139 l-100 -129 -60 65 c-69 73
-100 81 -141 39 -39 -38 -32 -66 36 -145 112 -130 134 -150 165 -150 16 0 34
4 40 8 7 4 73 85 148 181 148 190 157 211 111 256 -26 26 -47 30 -80 14z"/>
</g>
</svg>
